<?xml version="1.0" encoding="UTF-8"?>
<svg xmlns="http://www.w3.org/2000/svg" width="390" height="844" viewBox="0 0 390 844" preserveAspectRatio="xMidYMid slice">
  <defs>
    <linearGradient id="sky" x1="0" y1="1" x2="0" y2="0">
      <stop offset="0%" stop-color="#DB819C"/>
      <stop offset="28%" stop-color="#A05987"/>
      <stop offset="62%" stop-color="#3B1F52"/>
      <stop offset="100%" stop-color="#1E142B"/>
    </linearGradient>
    <!-- horizon glow -->
    <radialGradient id="glow" cx="50%" cy="100%" r="80%">
      <stop offset="0%" stop-color="#FFDDB0" stop-opacity="0.65"/>
      <stop offset="70%" stop-color="#FFDDB0" stop-opacity="0.0"/>
    </radialGradient>
    <filter id="soft">
      <feGaussianBlur stdDeviation="18"/>
    </filter>
    <linearGradient id="shoot" x1="0%" y1="0%" x2="100%" y2="0%">
      <stop offset="0%" stop-color="#FFFFFF" stop-opacity="1"/>
      <stop offset="85%" stop-color="#FFFFFF" stop-opacity="0"/>
    </linearGradient>
  </defs>

  <!-- sky gradient -->
  <rect width="100%" height="100%" fill="url(#sky)"/>
  <!-- horizon glow -->
  <ellipse cx="195.0" cy="860.88" rx="351.0" ry="295.4" fill="url(#glow)" filter="url(#soft)"/>

  <!-- milky cluster (left bias) -->
  <g transform="translate(-70,0)">
    <circle cx="40.01" cy="713.93" r="1.28" fill="#E7D6FF" opacity="0.250"/>
    <circle cx="297.62" cy="230.24" r="1.32" fill="#E7D6FF" opacity="0.231"/>
    <circle cx="170.61" cy="798.77" r="0.78" fill="#E7D6FF" opacity="0.273"/>
    <circle cx="136.34" cy="22.51" r="0.64" fill="#E7D6FF" opacity="0.280"/>
    <circle cx="91.95" cy="839.38" r="0.90" fill="#E7D6FF" opacity="0.214"/>
    <circle cx="363.02" cy="708.26" r="1.12" fill="#E7D6FF" opacity="0.321"/>
    <circle cx="53.66" cy="242.13" r="1.26" fill="#E7D6FF" opacity="0.307"/>
    <circle cx="54.13" cy="595.47" r="0.96" fill="#E7D6FF" opacity="0.211"/>
    <circle cx="30.90" cy="216.00" r="1.27" fill="#E7D6FF" opacity="0.287"/>
    <circle cx="283.62" cy="445.44" r="0.69" fill="#E7D6FF" opacity="0.250"/>
    <circle cx="117.45" cy="40.30" r="0.94" fill="#E7D6FF" opacity="0.321"/>
    <circle cx="178.27" cy="93.56" r="1.32" fill="#E7D6FF" opacity="0.294"/>
    <circle cx="6.41" cy="434.98" r="0.79" fill="#E7D6FF" opacity="0.230"/>
    <circle cx="167.40" cy="518.90" r="0.79" fill="#E7D6FF" opacity="0.268"/>
    <circle cx="259.10" cy="72.26" r="1.38" fill="#E7D6FF" opacity="0.219"/>
    <circle cx="205.16" cy="428.18" r="1.39" fill="#E7D6FF" opacity="0.288"/>
    <circle cx="152.28" cy="396.79" r="1.11" fill="#E7D6FF" opacity="0.347"/>
    <circle cx="98.92" cy="13.71" r="1.23" fill="#E7D6FF" opacity="0.258"/>
    <circle cx="285.85" cy="530.25" r="1.22" fill="#E7D6FF" opacity="0.313"/>
    <circle cx="129.68" cy="37.42" r="1.04" fill="#E7D6FF" opacity="0.324"/>
    <circle cx="68.28" cy="657.60" r="0.97" fill="#E7D6FF" opacity="0.307"/>
    <circle cx="246.38" cy="684.90" r="0.65" fill="#E7D6FF" opacity="0.319"/>
    <circle cx="178.50" cy="247.67" r="0.64" fill="#E7D6FF" opacity="0.238"/>
    <circle cx="16.34" cy="787.77" r="1.01" fill="#E7D6FF" opacity="0.348"/>
    <circle cx="211.78" cy="213.80" r="1.20" fill="#E7D6FF" opacity="0.237"/>
    <circle cx="139.22" cy="659.03" r="1.29" fill="#E7D6FF" opacity="0.256"/>
    <circle cx="48.55" cy="310.61" r="1.31" fill="#E7D6FF" opacity="0.314"/>
    <circle cx="348.91" cy="326.33" r="1.38" fill="#E7D6FF" opacity="0.279"/>
    <circle cx="194.03" cy="780.12" r="1.02" fill="#E7D6FF" opacity="0.322"/>
    <circle cx="283.56" cy="66.61" r="1.08" fill="#E7D6FF" opacity="0.325"/>
    <circle cx="212.74" cy="271.10" r="0.66" fill="#E7D6FF" opacity="0.303"/>
    <circle cx="119.53" cy="508.61" r="0.94" fill="#E7D6FF" opacity="0.307"/>
    <circle cx="137.10" cy="35.75" r="1.30" fill="#E7D6FF" opacity="0.259"/>
    <circle cx="389.28" cy="231.72" r="1.38" fill="#E7D6FF" opacity="0.343"/>
    <circle cx="29.27" cy="538.06" r="0.89" fill="#E7D6FF" opacity="0.322"/>
    <circle cx="264.97" cy="804.15" r="0.71" fill="#E7D6FF" opacity="0.295"/>
    <circle cx="304.71" cy="29.37" r="0.65" fill="#E7D6FF" opacity="0.319"/>
    <circle cx="142.87" cy="323.13" r="1.05" fill="#E7D6FF" opacity="0.295"/>
    <circle cx="264.83" cy="800.81" r="0.90" fill="#E7D6FF" opacity="0.317"/>
    <circle cx="223.83" cy="446.86" r="0.92" fill="#E7D6FF" opacity="0.301"/>
    <circle cx="97.35" cy="95.75" r="1.19" fill="#E7D6FF" opacity="0.280"/>
    <circle cx="150.93" cy="474.05" r="0.81" fill="#E7D6FF" opacity="0.246"/>
    <circle cx="174.05" cy="840.93" r="0.83" fill="#E7D6FF" opacity="0.338"/>
    <circle cx="191.57" cy="103.51" r="1.28" fill="#E7D6FF" opacity="0.273"/>
    <circle cx="350.48" cy="375.67" r="0.67" fill="#E7D6FF" opacity="0.305"/>
    <circle cx="329.75" cy="269.73" r="0.88" fill="#E7D6FF" opacity="0.219"/>
    <circle cx="211.45" cy="752.28" r="1.28" fill="#E7D6FF" opacity="0.310"/>
    <circle cx="361.66" cy="538.22" r="1.23" fill="#E7D6FF" opacity="0.281"/>
    <circle cx="47.33" cy="169.63" r="0.71" fill="#E7D6FF" opacity="0.321"/>
    <circle cx="10.25" cy="467.59" r="0.90" fill="#E7D6FF" opacity="0.323"/>
    <circle cx="215.14" cy="516.48" r="0.67" fill="#E7D6FF" opacity="0.253"/>
    <circle cx="389.84" cy="606.73" r="1.02" fill="#E7D6FF" opacity="0.318"/>
    <circle cx="321.10" cy="62.25" r="1.38" fill="#E7D6FF" opacity="0.300"/>
    <circle cx="175.49" cy="574.01" r="0.88" fill="#E7D6FF" opacity="0.333"/>
    <circle cx="304.30" cy="539.99" r="0.75" fill="#E7D6FF" opacity="0.345"/>
    <circle cx="168.72" cy="768.64" r="0.64" fill="#E7D6FF" opacity="0.227"/>
    <circle cx="59.68" cy="138.97" r="0.86" fill="#E7D6FF" opacity="0.309"/>
    <circle cx="134.95" cy="794.12" r="1.32" fill="#E7D6FF" opacity="0.328"/>
    <circle cx="97.74" cy="535.99" r="1.04" fill="#E7D6FF" opacity="0.228"/>
    <circle cx="118.10" cy="450.26" r="1.00" fill="#E7D6FF" opacity="0.234"/>
    <circle cx="367.23" cy="130.14" r="1.13" fill="#E7D6FF" opacity="0.311"/>
    <circle cx="236.00" cy="711.10" r="1.05" fill="#E7D6FF" opacity="0.326"/>
    <circle cx="11.07" cy="38.37" r="1.11" fill="#E7D6FF" opacity="0.291"/>
    <circle cx="253.94" cy="647.31" r="0.93" fill="#E7D6FF" opacity="0.299"/>
    <circle cx="194.23" cy="529.33" r="0.83" fill="#E7D6FF" opacity="0.344"/>
    <circle cx="188.35" cy="679.16" r="1.15" fill="#E7D6FF" opacity="0.252"/>
    <circle cx="28.46" cy="50.57" r="0.95" fill="#E7D6FF" opacity="0.278"/>
    <circle cx="79.57" cy="512.02" r="0.85" fill="#E7D6FF" opacity="0.311"/>
    <circle cx="286.34" cy="726.50" r="1.38" fill="#E7D6FF" opacity="0.228"/>
    <circle cx="144.51" cy="474.03" r="0.86" fill="#E7D6FF" opacity="0.275"/>
    <circle cx="104.31" cy="209.24" r="0.68" fill="#E7D6FF" opacity="0.251"/>
    <circle cx="149.82" cy="519.38" r="0.80" fill="#E7D6FF" opacity="0.331"/>
    <circle cx="62.28" cy="276.36" r="1.06" fill="#E7D6FF" opacity="0.254"/>
    <circle cx="297.62" cy="420.54" r="1.01" fill="#E7D6FF" opacity="0.280"/>
    <circle cx="120.33" cy="19.56" r="1.36" fill="#E7D6FF" opacity="0.281"/>
    <circle cx="377.01" cy="181.58" r="0.88" fill="#E7D6FF" opacity="0.217"/>
    <circle cx="193.01" cy="744.69" r="1.12" fill="#E7D6FF" opacity="0.276"/>
    <circle cx="209.31" cy="715.01" r="0.94" fill="#E7D6FF" opacity="0.334"/>
    <circle cx="283.73" cy="644.70" r="0.89" fill="#E7D6FF" opacity="0.266"/>
    <circle cx="222.41" cy="164.29" r="1.04" fill="#E7D6FF" opacity="0.220"/>
    <circle cx="196.66" cy="645.16" r="0.82" fill="#E7D6FF" opacity="0.348"/>
    <circle cx="265.36" cy="100.28" r="1.38" fill="#E7D6FF" opacity="0.265"/>
    <circle cx="310.01" cy="286.19" r="1.35" fill="#E7D6FF" opacity="0.316"/>
    <circle cx="77.63" cy="429.70" r="1.00" fill="#E7D6FF" opacity="0.216"/>
    <circle cx="53.44" cy="281.09" r="0.98" fill="#E7D6FF" opacity="0.274"/>
    <circle cx="236.44" cy="435.09" r="0.86" fill="#E7D6FF" opacity="0.296"/>
    <circle cx="63.38" cy="836.08" r="1.19" fill="#E7D6FF" opacity="0.252"/>
    <circle cx="131.19" cy="699.08" r="1.03" fill="#E7D6FF" opacity="0.309"/>
    <circle cx="116.92" cy="688.49" r="0.89" fill="#E7D6FF" opacity="0.304"/>
    <circle cx="382.16" cy="492.64" r="1.24" fill="#E7D6FF" opacity="0.312"/>
    <circle cx="268.34" cy="22.49" r="0.98" fill="#E7D6FF" opacity="0.345"/>
    <circle cx="305.33" cy="655.08" r="1.06" fill="#E7D6FF" opacity="0.311"/>
    <circle cx="227.57" cy="143.91" r="1.10" fill="#E7D6FF" opacity="0.297"/>
    <circle cx="328.06" cy="124.72" r="1.14" fill="#E7D6FF" opacity="0.214"/>
    <circle cx="369.80" cy="92.75" r="0.62" fill="#E7D6FF" opacity="0.254"/>
    <circle cx="59.06" cy="582.78" r="0.93" fill="#E7D6FF" opacity="0.318"/>
    <circle cx="359.00" cy="736.66" r="1.19" fill="#E7D6FF" opacity="0.219"/>
    <circle cx="53.85" cy="175.00" r="0.86" fill="#E7D6FF" opacity="0.303"/>
    <circle cx="204.94" cy="264.81" r="0.74" fill="#E7D6FF" opacity="0.338"/>
    <circle cx="133.51" cy="299.02" r="1.22" fill="#E7D6FF" opacity="0.311"/>
    <circle cx="250.89" cy="585.16" r="1.09" fill="#E7D6FF" opacity="0.237"/>
    <circle cx="96.14" cy="471.03" r="0.78" fill="#E7D6FF" opacity="0.346"/>
    <circle cx="116.07" cy="243.92" r="0.77" fill="#E7D6FF" opacity="0.309"/>
    <circle cx="123.65" cy="294.39" r="1.35" fill="#E7D6FF" opacity="0.321"/>
    <circle cx="106.65" cy="102.86" r="1.14" fill="#E7D6FF" opacity="0.263"/>
    <circle cx="382.26" cy="690.71" r="1.36" fill="#E7D6FF" opacity="0.323"/>
    <circle cx="113.28" cy="242.76" r="1.17" fill="#E7D6FF" opacity="0.258"/>
    <circle cx="172.53" cy="216.44" r="0.98" fill="#E7D6FF" opacity="0.238"/>
    <circle cx="210.05" cy="787.47" r="1.16" fill="#E7D6FF" opacity="0.229"/>
    <circle cx="240.11" cy="495.28" r="0.79" fill="#E7D6FF" opacity="0.304"/>
    <circle cx="207.11" cy="538.43" r="0.64" fill="#E7D6FF" opacity="0.268"/>
    <circle cx="279.77" cy="84.86" r="1.22" fill="#E7D6FF" opacity="0.211"/>
    <circle cx="214.64" cy="784.16" r="0.93" fill="#E7D6FF" opacity="0.341"/>
    <circle cx="342.58" cy="402.97" r="0.76" fill="#E7D6FF" opacity="0.345"/>
    <circle cx="125.26" cy="545.14" r="1.33" fill="#E7D6FF" opacity="0.223"/>
    <circle cx="223.91" cy="451.67" r="1.18" fill="#E7D6FF" opacity="0.341"/>
    <circle cx="356.16" cy="147.75" r="1.31" fill="#E7D6FF" opacity="0.235"/>
    <circle cx="358.66" cy="841.61" r="0.92" fill="#E7D6FF" opacity="0.279"/>
    <circle cx="365.28" cy="812.04" r="1.34" fill="#E7D6FF" opacity="0.333"/>
    <circle cx="3.61" cy="479.36" r="0.69" fill="#E7D6FF" opacity="0.348"/>
    <circle cx="110.98" cy="834.80" r="1.03" fill="#E7D6FF" opacity="0.279"/>
    <circle cx="366.04" cy="718.29" r="0.97" fill="#E7D6FF" opacity="0.237"/>
    <circle cx="43.93" cy="137.15" r="0.97" fill="#E7D6FF" opacity="0.246"/>
    <circle cx="72.62" cy="621.71" r="1.23" fill="#E7D6FF" opacity="0.289"/>
    <circle cx="295.34" cy="148.12" r="1.28" fill="#E7D6FF" opacity="0.336"/>
    <circle cx="322.53" cy="434.90" r="0.67" fill="#E7D6FF" opacity="0.304"/>
    <circle cx="72.06" cy="118.68" r="0.86" fill="#E7D6FF" opacity="0.245"/>
    <circle cx="101.71" cy="198.78" r="1.20" fill="#E7D6FF" opacity="0.344"/>
    <circle cx="117.76" cy="610.11" r="0.61" fill="#E7D6FF" opacity="0.302"/>
    <circle cx="270.18" cy="52.43" r="0.69" fill="#E7D6FF" opacity="0.253"/>
    <circle cx="158.11" cy="424.13" r="1.32" fill="#E7D6FF" opacity="0.308"/>
    <circle cx="121.28" cy="99.10" r="1.33" fill="#E7D6FF" opacity="0.251"/>
    <circle cx="239.70" cy="184.94" r="0.71" fill="#E7D6FF" opacity="0.231"/>
    <circle cx="291.62" cy="511.24" r="0.93" fill="#E7D6FF" opacity="0.287"/>
    <circle cx="183.62" cy="453.66" r="1.13" fill="#E7D6FF" opacity="0.241"/>
    <circle cx="96.51" cy="637.00" r="1.30" fill="#E7D6FF" opacity="0.221"/>
    <circle cx="174.23" cy="593.98" r="0.66" fill="#E7D6FF" opacity="0.289"/>
    <circle cx="24.09" cy="462.22" r="1.00" fill="#E7D6FF" opacity="0.290"/>
    <circle cx="58.44" cy="276.93" r="1.02" fill="#E7D6FF" opacity="0.226"/>
    <circle cx="80.11" cy="492.18" r="0.67" fill="#E7D6FF" opacity="0.281"/>
  </g>

  <!-- star layers -->
  <g><circle cx="249.38" cy="21.11" r="0.54" fill="#ffffff" opacity="0.655"/>
    <circle cx="287.22" cy="571.13" r="0.85" fill="#ffffff" opacity="0.603"/>
    <circle cx="164.55" cy="25.15" r="0.51" fill="#ffffff" opacity="0.762"/>
    <circle cx="10.35" cy="167.82" r="0.72" fill="#ffffff" opacity="0.777"/>
    <circle cx="85.97" cy="497.34" r="0.80" fill="#ffffff" opacity="0.572"/>
    <circle cx="314.27" cy="589.23" r="0.57" fill="#ffffff" opacity="0.629"/>
    <circle cx="373.31" cy="284.09" r="0.45" fill="#ffffff" opacity="0.607"/>
    <circle cx="330.52" cy="509.54" r="0.80" fill="#ffffff" opacity="0.847"/>
    <circle cx="209.13" cy="821.31" r="0.59" fill="#ffffff" opacity="0.780"/>
    <circle cx="323.47" cy="522.03" r="0.83" fill="#ffffff" opacity="0.789"/>
    <circle cx="274.78" cy="38.68" r="0.51" fill="#ffffff" opacity="0.680"/>
    <circle cx="31.12" cy="196.48" r="0.45" fill="#ffffff" opacity="0.676"/>
    <circle cx="247.92" cy="307.92" r="0.59" fill="#ffffff" opacity="0.650"/>
    <circle cx="104.12" cy="790.54" r="0.72" fill="#ffffff" opacity="0.801"/>
    <circle cx="66.74" cy="615.38" r="0.48" fill="#ffffff" opacity="0.714"/>
    <circle cx="385.91" cy="540.16" r="0.68" fill="#ffffff" opacity="0.830"/>
    <circle cx="328.71" cy="654.94" r="0.51" fill="#ffffff" opacity="0.582"/>
    <circle cx="123.03" cy="225.97" r="0.51" fill="#ffffff" opacity="0.928"/>
    <circle cx="341.78" cy="265.59" r="0.73" fill="#ffffff" opacity="0.720"/>
    <circle cx="356.67" cy="387.27" r="0.53" fill="#ffffff" opacity="0.664"/>
    <circle cx="218.93" cy="221.75" r="0.69" fill="#ffffff" opacity="0.911"/>
    <circle cx="155.77" cy="185.11" r="0.90" fill="#ffffff" opacity="0.764"/>
    <circle cx="35.45" cy="39.77" r="0.45" fill="#ffffff" opacity="0.808"/>
    <circle cx="308.91" cy="356.30" r="0.43" fill="#ffffff" opacity="0.715"/>
    <circle cx="388.49" cy="446.57" r="0.89" fill="#ffffff" opacity="0.897"/>
    <circle cx="4.48" cy="608.29" r="0.74" fill="#ffffff" opacity="0.774"/>
    <circle cx="104.06" cy="540.97" r="0.46" fill="#ffffff" opacity="0.735"/>
    <circle cx="176.95" cy="805.02" r="0.84" fill="#ffffff" opacity="0.670"/>
    <circle cx="195.23" cy="150.78" r="0.86" fill="#ffffff" opacity="0.901"/>
    <circle cx="116.39" cy="539.27" r="0.70" fill="#ffffff" opacity="0.628"/>
    <circle cx="297.38" cy="455.24" r="0.79" fill="#ffffff" opacity="0.772"/>
    <circle cx="0.22" cy="273.59" r="0.41" fill="#ffffff" opacity="0.923"/>
    <circle cx="342.70" cy="701.93" r="0.55" fill="#ffffff" opacity="0.592"/>
    <circle cx="342.42" cy="799.23" r="0.44" fill="#ffffff" opacity="0.755"/>
    <circle cx="26.99" cy="641.95" r="0.78" fill="#ffffff" opacity="0.619"/>
    <circle cx="185.36" cy="464.03" r="0.53" fill="#ffffff" opacity="0.902"/>
    <circle cx="165.02" cy="178.76" r="0.67" fill="#ffffff" opacity="0.847"/>
    <circle cx="78.45" cy="263.09" r="0.90" fill="#ffffff" opacity="0.817"/>
    <circle cx="170.86" cy="436.83" r="0.46" fill="#ffffff" opacity="0.655"/>
    <circle cx="131.85" cy="496.53" r="0.52" fill="#ffffff" opacity="0.654"/>
    <circle cx="27.69" cy="532.65" r="0.51" fill="#ffffff" opacity="0.914"/>
    <circle cx="335.26" cy="59.80" r="0.52" fill="#ffffff" opacity="0.824"/>
    <circle cx="83.55" cy="111.67" r="0.87" fill="#ffffff" opacity="0.787"/>
    <circle cx="184.34" cy="662.22" r="0.80" fill="#ffffff" opacity="0.642"/>
    <circle cx="37.80" cy="363.81" r="0.61" fill="#ffffff" opacity="0.747"/>
    <circle cx="284.34" cy="568.32" r="0.89" fill="#ffffff" opacity="0.607"/>
    <circle cx="157.02" cy="286.37" r="0.83" fill="#ffffff" opacity="0.664"/>
    <circle cx="74.18" cy="378.63" r="0.61" fill="#ffffff" opacity="0.676"/>
    <circle cx="97.42" cy="779.24" r="0.62" fill="#ffffff" opacity="0.897"/>
    <circle cx="214.63" cy="42.70" r="0.90" fill="#ffffff" opacity="0.888"/>
    <circle cx="377.91" cy="781.85" r="0.82" fill="#ffffff" opacity="0.633"/>
    <circle cx="189.40" cy="180.40" r="0.60" fill="#ffffff" opacity="0.592"/>
    <circle cx="147.80" cy="831.60" r="0.53" fill="#ffffff" opacity="0.868"/>
    <circle cx="177.45" cy="357.02" r="0.88" fill="#ffffff" opacity="0.948"/>
    <circle cx="216.75" cy="606.34" r="0.48" fill="#ffffff" opacity="0.683"/>
    <circle cx="377.80" cy="488.83" r="0.67" fill="#ffffff" opacity="0.854"/>
    <circle cx="22.29" cy="493.05" r="0.65" fill="#ffffff" opacity="0.894"/>
    <circle cx="61.40" cy="810.90" r="0.44" fill="#ffffff" opacity="0.641"/>
    <circle cx="232.06" cy="569.88" r="0.52" fill="#ffffff" opacity="0.616"/>
    <circle cx="347.21" cy="207.81" r="0.70" fill="#ffffff" opacity="0.805"/>
    <circle cx="163.50" cy="492.62" r="0.66" fill="#ffffff" opacity="0.925"/>
    <circle cx="79.66" cy="604.47" r="0.52" fill="#ffffff" opacity="0.720"/>
    <circle cx="261.96" cy="253.20" r="0.56" fill="#ffffff" opacity="0.856"/>
    <circle cx="28.29" cy="386.79" r="0.90" fill="#ffffff" opacity="0.949"/>
    <circle cx="28.57" cy="179.90" r="0.53" fill="#ffffff" opacity="0.925"/>
    <circle cx="343.54" cy="742.10" r="0.58" fill="#ffffff" opacity="0.630"/>
    <circle cx="325.16" cy="593.79" r="0.71" fill="#ffffff" opacity="0.945"/>
    <circle cx="255.05" cy="6.60" r="0.81" fill="#ffffff" opacity="0.684"/>
    <circle cx="258.72" cy="792.46" r="0.47" fill="#ffffff" opacity="0.614"/>
    <circle cx="41.74" cy="466.92" r="0.54" fill="#ffffff" opacity="0.800"/>
    <circle cx="279.87" cy="171.84" r="0.72" fill="#ffffff" opacity="0.670"/>
    <circle cx="190.53" cy="764.10" r="0.82" fill="#ffffff" opacity="0.605"/>
    <circle cx="165.19" cy="233.52" r="0.40" fill="#ffffff" opacity="0.863"/>
    <circle cx="248.47" cy="221.09" r="0.77" fill="#ffffff" opacity="0.780"/>
    <circle cx="166.80" cy="8.16" r="0.44" fill="#ffffff" opacity="0.906"/>
    <circle cx="352.53" cy="460.48" r="0.82" fill="#ffffff" opacity="0.791"/>
    <circle cx="57.76" cy="107.56" r="0.55" fill="#ffffff" opacity="0.912"/>
    <circle cx="310.49" cy="726.43" r="0.85" fill="#ffffff" opacity="0.650"/>
    <circle cx="97.32" cy="86.76" r="0.79" fill="#ffffff" opacity="0.906"/>
    <circle cx="158.49" cy="523.84" r="0.48" fill="#ffffff" opacity="0.923"/>
    <circle cx="337.20" cy="823.92" r="0.81" fill="#ffffff" opacity="0.905"/>
    <circle cx="9.67" cy="621.66" r="0.57" fill="#ffffff" opacity="0.924"/>
    <circle cx="312.87" cy="729.27" r="0.81" fill="#ffffff" opacity="0.671"/>
    <circle cx="307.08" cy="91.23" r="0.84" fill="#ffffff" opacity="0.896"/>
    <circle cx="86.75" cy="689.20" r="0.63" fill="#ffffff" opacity="0.686"/>
    <circle cx="310.18" cy="192.09" r="0.41" fill="#ffffff" opacity="0.643"/>
    <circle cx="128.02" cy="729.51" r="0.88" fill="#ffffff" opacity="0.676"/>
    <circle cx="250.18" cy="337.33" r="0.89" fill="#ffffff" opacity="0.774"/>
    <circle cx="366.30" cy="97.35" r="0.89" fill="#ffffff" opacity="0.638"/>
    <circle cx="375.39" cy="224.05" r="0.45" fill="#ffffff" opacity="0.735"/>
    <circle cx="284.13" cy="264.74" r="0.70" fill="#ffffff" opacity="0.764"/>
    <circle cx="150.23" cy="486.64" r="0.53" fill="#ffffff" opacity="0.839"/>
    <circle cx="0.66" cy="781.19" r="0.67" fill="#ffffff" opacity="0.843"/>
    <circle cx="289.36" cy="566.01" r="0.58" fill="#ffffff" opacity="0.597"/>
    <circle cx="259.05" cy="278.69" r="0.56" fill="#ffffff" opacity="0.892"/>
    <circle cx="280.70" cy="253.47" r="0.55" fill="#ffffff" opacity="0.725"/>
    <circle cx="156.94" cy="249.53" r="0.46" fill="#ffffff" opacity="0.730"/>
    <circle cx="366.74" cy="571.66" r="0.85" fill="#ffffff" opacity="0.804"/>
    <circle cx="117.37" cy="462.46" r="0.40" fill="#ffffff" opacity="0.679"/>
    <circle cx="167.66" cy="489.51" r="0.73" fill="#ffffff" opacity="0.747"/>
    <circle cx="172.44" cy="180.36" r="0.64" fill="#ffffff" opacity="0.912"/>
    <circle cx="310.45" cy="143.22" r="0.44" fill="#ffffff" opacity="0.766"/>
    <circle cx="246.85" cy="282.90" r="0.81" fill="#ffffff" opacity="0.855"/>
    <circle cx="262.39" cy="189.60" r="0.50" fill="#ffffff" opacity="0.579"/>
    <circle cx="95.49" cy="401.02" r="0.82" fill="#ffffff" opacity="0.598"/>
    <circle cx="161.63" cy="531.52" r="0.50" fill="#ffffff" opacity="0.835"/>
    <circle cx="192.81" cy="205.92" r="0.73" fill="#ffffff" opacity="0.572"/>
    <circle cx="292.88" cy="649.92" r="0.45" fill="#ffffff" opacity="0.732"/>
    <circle cx="68.60" cy="808.52" r="0.66" fill="#ffffff" opacity="0.589"/>
    <circle cx="97.19" cy="716.00" r="0.63" fill="#ffffff" opacity="0.875"/>
    <circle cx="260.36" cy="833.78" r="0.70" fill="#ffffff" opacity="0.931"/>
    <circle cx="347.66" cy="517.08" r="0.76" fill="#ffffff" opacity="0.762"/>
    <circle cx="323.92" cy="462.40" r="0.85" fill="#ffffff" opacity="0.853"/>
    <circle cx="185.12" cy="218.76" r="0.52" fill="#ffffff" opacity="0.812"/>
    <circle cx="298.67" cy="439.98" r="0.71" fill="#ffffff" opacity="0.674"/>
    <circle cx="30.22" cy="241.15" r="0.54" fill="#ffffff" opacity="0.691"/>
    <circle cx="210.66" cy="116.79" r="0.52" fill="#ffffff" opacity="0.834"/>
    <circle cx="275.50" cy="54.21" r="0.60" fill="#ffffff" opacity="0.776"/>
    <circle cx="162.15" cy="174.57" r="0.61" fill="#ffffff" opacity="0.914"/>
    <circle cx="227.79" cy="587.02" r="0.83" fill="#ffffff" opacity="0.861"/>
    <circle cx="148.35" cy="4.98" r="0.58" fill="#ffffff" opacity="0.856"/>
    <circle cx="332.84" cy="804.70" r="0.61" fill="#ffffff" opacity="0.854"/>
    <circle cx="212.99" cy="509.15" r="0.51" fill="#ffffff" opacity="0.653"/>
    <circle cx="169.98" cy="24.50" r="0.57" fill="#ffffff" opacity="0.828"/>
    <circle cx="157.68" cy="139.30" r="0.63" fill="#ffffff" opacity="0.618"/>
    <circle cx="242.68" cy="22.76" r="0.60" fill="#ffffff" opacity="0.784"/>
    <circle cx="10.57" cy="542.48" r="0.47" fill="#ffffff" opacity="0.745"/>
    <circle cx="19.61" cy="319.96" r="0.51" fill="#ffffff" opacity="0.694"/>
    <circle cx="296.88" cy="319.98" r="0.78" fill="#ffffff" opacity="0.886"/>
    <circle cx="98.39" cy="69.13" r="0.41" fill="#ffffff" opacity="0.775"/>
    <circle cx="389.96" cy="295.37" r="0.73" fill="#ffffff" opacity="0.867"/>
    <circle cx="254.18" cy="636.57" r="0.87" fill="#ffffff" opacity="0.646"/>
    <circle cx="7.95" cy="128.61" r="0.46" fill="#ffffff" opacity="0.824"/>
    <circle cx="219.95" cy="183.96" r="0.75" fill="#ffffff" opacity="0.861"/>
    <circle cx="65.44" cy="512.52" r="0.77" fill="#ffffff" opacity="0.614"/>
    <circle cx="319.53" cy="814.22" r="0.45" fill="#ffffff" opacity="0.580"/>
    <circle cx="121.66" cy="571.68" r="0.88" fill="#ffffff" opacity="0.721"/>
    <circle cx="278.86" cy="64.14" r="0.75" fill="#ffffff" opacity="0.808"/>
    <circle cx="39.74" cy="651.97" r="0.83" fill="#ffffff" opacity="0.798"/>
    <circle cx="47.21" cy="830.36" r="0.79" fill="#ffffff" opacity="0.702"/>
    <circle cx="167.07" cy="312.76" r="0.65" fill="#ffffff" opacity="0.700"/>
    <circle cx="331.33" cy="694.05" r="0.45" fill="#ffffff" opacity="0.935"/>
    <circle cx="247.88" cy="699.43" r="0.75" fill="#ffffff" opacity="0.735"/>
    <circle cx="286.18" cy="814.86" r="0.54" fill="#ffffff" opacity="0.877"/>
    <circle cx="209.89" cy="408.07" r="0.62" fill="#ffffff" opacity="0.848"/>
    <circle cx="104.67" cy="718.85" r="0.82" fill="#ffffff" opacity="0.603"/>
    <circle cx="343.84" cy="205.82" r="0.63" fill="#ffffff" opacity="0.802"/>
    <circle cx="147.81" cy="24.22" r="0.83" fill="#ffffff" opacity="0.639"/>
    <circle cx="82.73" cy="673.37" r="0.57" fill="#ffffff" opacity="0.905"/>
    <circle cx="273.46" cy="233.17" r="0.41" fill="#ffffff" opacity="0.930"/>
    <circle cx="33.39" cy="607.74" r="0.64" fill="#ffffff" opacity="0.858"/>
    <circle cx="269.34" cy="545.14" r="0.65" fill="#ffffff" opacity="0.871"/>
    <circle cx="36.29" cy="187.03" r="0.75" fill="#ffffff" opacity="0.686"/>
    <circle cx="226.81" cy="399.43" r="0.67" fill="#ffffff" opacity="0.732"/>
    <circle cx="290.91" cy="279.19" r="0.75" fill="#ffffff" opacity="0.673"/>
    <circle cx="98.05" cy="101.83" r="0.50" fill="#ffffff" opacity="0.615"/>
    <circle cx="208.99" cy="643.29" r="0.49" fill="#ffffff" opacity="0.652"/>
    <circle cx="188.84" cy="611.55" r="0.89" fill="#ffffff" opacity="0.769"/>
    <circle cx="110.37" cy="84.84" r="0.50" fill="#ffffff" opacity="0.656"/>
    <circle cx="69.98" cy="11.94" r="0.67" fill="#ffffff" opacity="0.674"/>
    <circle cx="379.98" cy="467.03" r="0.75" fill="#ffffff" opacity="0.618"/>
    <circle cx="338.70" cy="414.30" r="0.84" fill="#ffffff" opacity="0.788"/>
    <circle cx="183.06" cy="371.76" r="0.49" fill="#ffffff" opacity="0.590"/>
    <circle cx="367.01" cy="403.20" r="0.81" fill="#ffffff" opacity="0.722"/>
    <circle cx="28.89" cy="531.25" r="0.43" fill="#ffffff" opacity="0.627"/>
    <circle cx="219.51" cy="256.44" r="0.90" fill="#ffffff" opacity="0.615"/>
    <circle cx="298.13" cy="511.73" r="0.80" fill="#ffffff" opacity="0.656"/>
    <circle cx="203.80" cy="380.23" r="0.62" fill="#ffffff" opacity="0.897"/>
    <circle cx="386.11" cy="257.74" r="0.71" fill="#ffffff" opacity="0.802"/>
    <circle cx="288.63" cy="799.77" r="0.50" fill="#ffffff" opacity="0.650"/>
    <circle cx="257.57" cy="132.56" r="0.49" fill="#ffffff" opacity="0.599"/>
    <circle cx="1.04" cy="380.23" r="0.70" fill="#ffffff" opacity="0.681"/>
    <circle cx="90.28" cy="596.67" r="0.75" fill="#ffffff" opacity="0.743"/>
    <circle cx="268.08" cy="779.78" r="0.79" fill="#ffffff" opacity="0.808"/>
    <circle cx="257.86" cy="788.02" r="0.61" fill="#ffffff" opacity="0.777"/>
    <circle cx="252.58" cy="766.70" r="0.81" fill="#ffffff" opacity="0.597"/>
    <circle cx="64.71" cy="259.62" r="0.77" fill="#ffffff" opacity="0.786"/>
    <circle cx="112.56" cy="104.95" r="0.74" fill="#ffffff" opacity="0.836"/>
    <circle cx="367.64" cy="422.40" r="0.65" fill="#ffffff" opacity="0.601"/>
    <circle cx="15.55" cy="364.63" r="0.56" fill="#ffffff" opacity="0.665"/>
    <circle cx="35.62" cy="811.85" r="0.82" fill="#ffffff" opacity="0.789"/>
    <circle cx="370.81" cy="843.64" r="0.74" fill="#ffffff" opacity="0.672"/>
    <circle cx="15.69" cy="638.29" r="0.64" fill="#ffffff" opacity="0.818"/>
    <circle cx="357.27" cy="153.18" r="0.69" fill="#ffffff" opacity="0.811"/>
    <circle cx="191.77" cy="77.01" r="0.57" fill="#ffffff" opacity="0.697"/>
    <circle cx="261.35" cy="723.93" r="0.56" fill="#ffffff" opacity="0.834"/>
    <circle cx="112.40" cy="797.74" r="0.81" fill="#ffffff" opacity="0.779"/>
    <circle cx="177.38" cy="265.45" r="0.56" fill="#ffffff" opacity="0.939"/>
    <circle cx="157.63" cy="434.32" r="0.89" fill="#ffffff" opacity="0.820"/>
    <circle cx="211.61" cy="348.78" r="0.49" fill="#ffffff" opacity="0.707"/>
    <circle cx="295.01" cy="527.84" r="0.78" fill="#ffffff" opacity="0.647"/>
    <circle cx="214.20" cy="782.96" r="0.62" fill="#ffffff" opacity="0.835"/>
    <circle cx="47.36" cy="821.34" r="0.70" fill="#ffffff" opacity="0.661"/>
    <circle cx="61.77" cy="464.91" r="0.68" fill="#ffffff" opacity="0.605"/>
    <circle cx="386.98" cy="770.51" r="0.63" fill="#ffffff" opacity="0.615"/>
    <circle cx="324.54" cy="420.63" r="0.76" fill="#ffffff" opacity="0.763"/>
    <circle cx="106.64" cy="704.51" r="0.89" fill="#ffffff" opacity="0.663"/>
    <circle cx="214.99" cy="323.75" r="0.86" fill="#ffffff" opacity="0.763"/>
    <circle cx="342.94" cy="729.24" r="0.54" fill="#ffffff" opacity="0.870"/>
    <circle cx="161.83" cy="788.51" r="0.65" fill="#ffffff" opacity="0.882"/>
    <circle cx="110.31" cy="251.98" r="0.69" fill="#ffffff" opacity="0.950"/>
    <circle cx="190.96" cy="125.41" r="0.67" fill="#ffffff" opacity="0.701"/>
    <circle cx="215.25" cy="458.65" r="0.63" fill="#ffffff" opacity="0.692"/>
    <circle cx="73.57" cy="588.69" r="0.69" fill="#ffffff" opacity="0.659"/>
    <circle cx="302.46" cy="36.84" r="0.77" fill="#ffffff" opacity="0.838"/>
    <circle cx="316.45" cy="325.85" r="0.73" fill="#ffffff" opacity="0.882"/>
    <circle cx="382.52" cy="418.06" r="0.42" fill="#ffffff" opacity="0.761"/>
    <circle cx="230.17" cy="734.03" r="0.84" fill="#ffffff" opacity="0.737"/>
    <circle cx="205.12" cy="385.65" r="0.76" fill="#ffffff" opacity="0.726"/>
    <circle cx="255.36" cy="130.28" r="0.63" fill="#ffffff" opacity="0.938"/>
    <circle cx="132.04" cy="584.64" r="0.72" fill="#ffffff" opacity="0.894"/>
    <circle cx="332.41" cy="725.28" r="0.59" fill="#ffffff" opacity="0.690"/>
    <circle cx="280.30" cy="640.94" r="0.84" fill="#ffffff" opacity="0.584"/>
    <circle cx="26.68" cy="532.70" r="0.86" fill="#ffffff" opacity="0.949"/>
    <circle cx="291.24" cy="366.27" r="0.45" fill="#ffffff" opacity="0.811"/>
    <circle cx="340.31" cy="374.46" r="0.75" fill="#ffffff" opacity="0.913"/>
    <circle cx="17.94" cy="671.95" r="0.55" fill="#ffffff" opacity="0.712"/>
    <circle cx="56.77" cy="448.30" r="0.68" fill="#ffffff" opacity="0.871"/>
    <circle cx="66.29" cy="66.65" r="0.84" fill="#ffffff" opacity="0.805"/>
    <circle cx="93.92" cy="770.43" r="0.47" fill="#ffffff" opacity="0.745"/></g>
  <g><circle cx="99.05" cy="215.50" r="0.81" fill="#EDE9FF" opacity="0.784"/>
    <circle cx="351.47" cy="571.90" r="0.93" fill="#EDE9FF" opacity="0.660"/>
    <circle cx="134.77" cy="495.91" r="1.31" fill="#EDE9FF" opacity="0.654"/>
    <circle cx="97.54" cy="713.44" r="0.96" fill="#EDE9FF" opacity="0.641"/>
    <circle cx="188.45" cy="200.20" r="1.26" fill="#EDE9FF" opacity="0.705"/>
    <circle cx="387.15" cy="249.17" r="1.58" fill="#EDE9FF" opacity="0.734"/>
    <circle cx="107.05" cy="477.64" r="1.35" fill="#EDE9FF" opacity="0.763"/>
    <circle cx="19.13" cy="511.81" r="1.20" fill="#EDE9FF" opacity="0.817"/>
    <circle cx="111.62" cy="674.24" r="1.29" fill="#EDE9FF" opacity="0.630"/>
    <circle cx="248.28" cy="524.03" r="1.34" fill="#EDE9FF" opacity="0.755"/>
    <circle cx="257.08" cy="707.56" r="1.30" fill="#EDE9FF" opacity="0.817"/>
    <circle cx="252.07" cy="260.74" r="1.15" fill="#EDE9FF" opacity="0.707"/>
    <circle cx="285.62" cy="76.07" r="1.04" fill="#EDE9FF" opacity="0.764"/>
    <circle cx="68.50" cy="111.54" r="1.23" fill="#EDE9FF" opacity="0.840"/>
    <circle cx="207.03" cy="770.98" r="1.46" fill="#EDE9FF" opacity="0.597"/>
    <circle cx="321.63" cy="406.68" r="1.45" fill="#EDE9FF" opacity="0.764"/>
    <circle cx="132.10" cy="97.20" r="1.57" fill="#EDE9FF" opacity="0.558"/>
    <circle cx="376.94" cy="725.96" r="1.38" fill="#EDE9FF" opacity="0.843"/>
    <circle cx="377.24" cy="679.07" r="1.09" fill="#EDE9FF" opacity="0.779"/>
    <circle cx="5.43" cy="452.87" r="1.16" fill="#EDE9FF" opacity="0.739"/>
    <circle cx="262.21" cy="493.37" r="1.46" fill="#EDE9FF" opacity="0.830"/>
    <circle cx="42.25" cy="197.35" r="0.82" fill="#EDE9FF" opacity="0.811"/>
    <circle cx="218.95" cy="772.48" r="0.98" fill="#EDE9FF" opacity="0.531"/>
    <circle cx="321.30" cy="767.52" r="1.04" fill="#EDE9FF" opacity="0.649"/>
    <circle cx="54.51" cy="798.64" r="1.04" fill="#EDE9FF" opacity="0.677"/>
    <circle cx="37.90" cy="748.85" r="0.91" fill="#EDE9FF" opacity="0.664"/>
    <circle cx="261.49" cy="627.21" r="1.56" fill="#EDE9FF" opacity="0.653"/>
    <circle cx="289.48" cy="130.42" r="1.13" fill="#EDE9FF" opacity="0.544"/>
    <circle cx="190.85" cy="344.45" r="1.56" fill="#EDE9FF" opacity="0.521"/>
    <circle cx="144.51" cy="374.22" r="1.56" fill="#EDE9FF" opacity="0.801"/>
    <circle cx="38.75" cy="578.71" r="1.24" fill="#EDE9FF" opacity="0.842"/>
    <circle cx="139.88" cy="336.03" r="0.95" fill="#EDE9FF" opacity="0.552"/>
    <circle cx="330.73" cy="383.78" r="1.33" fill="#EDE9FF" opacity="0.728"/>
    <circle cx="232.89" cy="18.03" r="1.43" fill="#EDE9FF" opacity="0.593"/>
    <circle cx="49.11" cy="476.50" r="0.85" fill="#EDE9FF" opacity="0.770"/>
    <circle cx="80.79" cy="182.26" r="1.50" fill="#EDE9FF" opacity="0.622"/>
    <circle cx="57.55" cy="760.05" r="0.80" fill="#EDE9FF" opacity="0.802"/>
    <circle cx="56.43" cy="109.71" r="1.00" fill="#EDE9FF" opacity="0.569"/>
    <circle cx="257.81" cy="21.76" r="0.81" fill="#EDE9FF" opacity="0.779"/>
    <circle cx="92.79" cy="273.26" r="0.94" fill="#EDE9FF" opacity="0.528"/>
    <circle cx="289.27" cy="444.02" r="1.40" fill="#EDE9FF" opacity="0.672"/>
    <circle cx="303.43" cy="433.17" r="0.89" fill="#EDE9FF" opacity="0.681"/>
    <circle cx="368.71" cy="36.60" r="1.43" fill="#EDE9FF" opacity="0.805"/>
    <circle cx="203.37" cy="386.59" r="1.57" fill="#EDE9FF" opacity="0.531"/>
    <circle cx="186.80" cy="338.96" r="1.35" fill="#EDE9FF" opacity="0.677"/>
    <circle cx="354.78" cy="62.03" r="0.86" fill="#EDE9FF" opacity="0.717"/>
    <circle cx="25.62" cy="232.11" r="1.31" fill="#EDE9FF" opacity="0.696"/>
    <circle cx="126.82" cy="839.47" r="1.22" fill="#EDE9FF" opacity="0.664"/>
    <circle cx="236.12" cy="83.71" r="1.36" fill="#EDE9FF" opacity="0.800"/>
    <circle cx="253.86" cy="649.00" r="1.38" fill="#EDE9FF" opacity="0.583"/>
    <circle cx="176.11" cy="192.85" r="1.07" fill="#EDE9FF" opacity="0.664"/>
    <circle cx="162.24" cy="80.25" r="1.14" fill="#EDE9FF" opacity="0.736"/>
    <circle cx="145.98" cy="128.83" r="1.54" fill="#EDE9FF" opacity="0.533"/>
    <circle cx="324.39" cy="78.69" r="0.88" fill="#EDE9FF" opacity="0.761"/>
    <circle cx="316.59" cy="469.58" r="1.27" fill="#EDE9FF" opacity="0.701"/>
    <circle cx="128.56" cy="103.16" r="1.08" fill="#EDE9FF" opacity="0.736"/>
    <circle cx="292.61" cy="732.67" r="1.38" fill="#EDE9FF" opacity="0.839"/>
    <circle cx="234.16" cy="296.79" r="1.26" fill="#EDE9FF" opacity="0.582"/>
    <circle cx="256.13" cy="189.26" r="0.89" fill="#EDE9FF" opacity="0.797"/>
    <circle cx="143.35" cy="643.64" r="1.26" fill="#EDE9FF" opacity="0.784"/>
    <circle cx="329.61" cy="822.52" r="1.45" fill="#EDE9FF" opacity="0.719"/>
    <circle cx="250.65" cy="22.16" r="1.54" fill="#EDE9FF" opacity="0.792"/>
    <circle cx="104.30" cy="152.27" r="1.36" fill="#EDE9FF" opacity="0.615"/>
    <circle cx="132.53" cy="5.15" r="1.50" fill="#EDE9FF" opacity="0.703"/>
    <circle cx="156.31" cy="119.74" r="1.31" fill="#EDE9FF" opacity="0.520"/>
    <circle cx="290.98" cy="181.57" r="1.14" fill="#EDE9FF" opacity="0.626"/>
    <circle cx="144.32" cy="609.03" r="1.42" fill="#EDE9FF" opacity="0.703"/>
    <circle cx="33.13" cy="44.40" r="0.93" fill="#EDE9FF" opacity="0.720"/>
    <circle cx="262.85" cy="229.65" r="1.33" fill="#EDE9FF" opacity="0.675"/>
    <circle cx="172.40" cy="230.55" r="1.40" fill="#EDE9FF" opacity="0.549"/>
    <circle cx="167.67" cy="239.06" r="1.34" fill="#EDE9FF" opacity="0.675"/>
    <circle cx="260.18" cy="38.33" r="1.12" fill="#EDE9FF" opacity="0.714"/>
    <circle cx="3.00" cy="254.40" r="0.97" fill="#EDE9FF" opacity="0.557"/>
    <circle cx="99.65" cy="276.94" r="0.81" fill="#EDE9FF" opacity="0.764"/>
    <circle cx="68.52" cy="320.90" r="1.36" fill="#EDE9FF" opacity="0.680"/>
    <circle cx="325.01" cy="680.43" r="0.86" fill="#EDE9FF" opacity="0.803"/>
    <circle cx="16.50" cy="15.82" r="1.54" fill="#EDE9FF" opacity="0.803"/>
    <circle cx="224.55" cy="483.95" r="1.37" fill="#EDE9FF" opacity="0.652"/>
    <circle cx="44.92" cy="17.60" r="1.06" fill="#EDE9FF" opacity="0.782"/>
    <circle cx="241.07" cy="702.23" r="1.54" fill="#EDE9FF" opacity="0.540"/>
    <circle cx="329.35" cy="205.36" r="1.27" fill="#EDE9FF" opacity="0.688"/>
    <circle cx="154.35" cy="261.87" r="1.07" fill="#EDE9FF" opacity="0.623"/>
    <circle cx="65.57" cy="430.85" r="0.89" fill="#EDE9FF" opacity="0.683"/>
    <circle cx="353.31" cy="294.87" r="1.38" fill="#EDE9FF" opacity="0.788"/>
    <circle cx="317.86" cy="199.41" r="0.92" fill="#EDE9FF" opacity="0.577"/>
    <circle cx="234.94" cy="641.62" r="1.32" fill="#EDE9FF" opacity="0.570"/>
    <circle cx="301.41" cy="417.03" r="1.40" fill="#EDE9FF" opacity="0.768"/>
    <circle cx="175.07" cy="779.99" r="1.25" fill="#EDE9FF" opacity="0.726"/>
    <circle cx="243.56" cy="729.42" r="1.30" fill="#EDE9FF" opacity="0.561"/>
    <circle cx="26.63" cy="373.22" r="1.04" fill="#EDE9FF" opacity="0.603"/>
    <circle cx="21.91" cy="428.19" r="1.05" fill="#EDE9FF" opacity="0.664"/>
    <circle cx="22.19" cy="701.95" r="0.86" fill="#EDE9FF" opacity="0.804"/>
    <circle cx="333.56" cy="519.07" r="1.21" fill="#EDE9FF" opacity="0.667"/>
    <circle cx="216.18" cy="668.29" r="1.52" fill="#EDE9FF" opacity="0.663"/>
    <circle cx="315.83" cy="550.15" r="1.06" fill="#EDE9FF" opacity="0.672"/>
    <circle cx="58.84" cy="52.22" r="0.88" fill="#EDE9FF" opacity="0.816"/>
    <circle cx="133.94" cy="602.88" r="1.20" fill="#EDE9FF" opacity="0.569"/>
    <circle cx="96.62" cy="369.47" r="1.15" fill="#EDE9FF" opacity="0.688"/>
    <circle cx="61.91" cy="314.69" r="1.03" fill="#EDE9FF" opacity="0.649"/>
    <circle cx="131.96" cy="504.62" r="1.43" fill="#EDE9FF" opacity="0.730"/>
    <circle cx="25.71" cy="79.76" r="1.34" fill="#EDE9FF" opacity="0.607"/>
    <circle cx="282.26" cy="554.14" r="1.53" fill="#EDE9FF" opacity="0.807"/>
    <circle cx="130.01" cy="491.83" r="0.91" fill="#EDE9FF" opacity="0.629"/>
    <circle cx="377.40" cy="589.52" r="1.11" fill="#EDE9FF" opacity="0.712"/>
    <circle cx="365.82" cy="261.29" r="1.10" fill="#EDE9FF" opacity="0.779"/>
    <circle cx="317.14" cy="565.58" r="1.46" fill="#EDE9FF" opacity="0.761"/>
    <circle cx="267.31" cy="444.28" r="1.32" fill="#EDE9FF" opacity="0.654"/>
    <circle cx="141.11" cy="306.03" r="0.94" fill="#EDE9FF" opacity="0.583"/>
    <circle cx="369.59" cy="410.41" r="0.98" fill="#EDE9FF" opacity="0.557"/>
    <circle cx="30.09" cy="712.70" r="0.88" fill="#EDE9FF" opacity="0.772"/>
    <circle cx="325.70" cy="745.83" r="0.83" fill="#EDE9FF" opacity="0.624"/>
    <circle cx="298.86" cy="110.61" r="1.10" fill="#EDE9FF" opacity="0.565"/>
    <circle cx="324.22" cy="650.81" r="1.45" fill="#EDE9FF" opacity="0.566"/>
    <circle cx="170.69" cy="346.76" r="1.34" fill="#EDE9FF" opacity="0.591"/>
    <circle cx="173.24" cy="240.48" r="1.40" fill="#EDE9FF" opacity="0.663"/>
    <circle cx="208.26" cy="261.19" r="1.45" fill="#EDE9FF" opacity="0.669"/>
    <circle cx="325.69" cy="310.46" r="1.56" fill="#EDE9FF" opacity="0.845"/>
    <circle cx="180.06" cy="237.82" r="1.11" fill="#EDE9FF" opacity="0.689"/>
    <circle cx="376.84" cy="689.46" r="1.44" fill="#EDE9FF" opacity="0.557"/>
    <circle cx="97.50" cy="541.16" r="1.50" fill="#EDE9FF" opacity="0.699"/></g>

  <!-- optional mountains silhouette for depth (subtle, bottom) -->
  <path d="M0 725.8 
           C 46.8 658.3, 85.8 759.6, 136.5 717.4
           S 234.0 700.5, 280.8 742.7
           S 351.0 709.0, 390.0 751.2
           L 390.0 844.0 L 0 844.0 Z" fill="#0f0b1d" opacity="0.85"/>
  <path d="M0 768.0 
           C 39.0 742.7, 85.8 793.4, 136.5 776.5
           S 234.0 801.8, 280.8 784.9
           S 351.0 810.2, 390.0 801.8
           L 390.0 844.0 L 0 844.0 Z" fill="#120d21" opacity="0.95"/>

  <!-- shooting star -->
  <g opacity="0.95">
    <line x1="120" y1="260" x2="296.066568132085" y2="222.57589565280333" stroke="url(#shoot)" stroke-width="2" stroke-linecap="round"/>
  </g>
</svg>
